<?xml version="1.0" encoding="UTF-8" standalone="no"?>
<svg
   xmlns:dc="http://purl.org/dc/elements/1.1/"
   xmlns:cc="http://creativecommons.org/ns#"
   xmlns:rdf="http://www.w3.org/1999/02/22-rdf-syntax-ns#"
   xmlns:svg="http://www.w3.org/2000/svg"
   xmlns="http://www.w3.org/2000/svg"
   xmlns:sodipodi="http://sodipodi.sourceforge.net/DTD/sodipodi-0.dtd"
   xmlns:inkscape="http://www.inkscape.org/namespaces/inkscape"
   width="144.83356mm"
   height="130.2485mm"
   viewBox="0 0 144.83356 130.24851"
   version="1.1"
   id="svg76392"
   sodipodi:docname="verity-bundle-encryption.svg"
   inkscape:export-filename="/home/enrico/PTX/Vorträge/media/verity-bundle-encryption.png"
   inkscape:export-xdpi="299"
   inkscape:export-ydpi="299"
   inkscape:version="1.0.2 (e86c870879, 2021-01-15)">
  <defs
     id="defs76386">
    <marker
       style="overflow:visible"
       id="Arrow2Mend-1-8-6"
       refX="0"
       refY="0"
       orient="auto"
       inkscape:stockid="Arrow2Mend"
       inkscape:isstock="true">
      <path
         transform="scale(-0.6)"
         d="M 8.7185878,4.0337352 -2.2072895,0.01601326 8.7185884,-4.0017078 c -1.7454984,2.3720609 -1.7354408,5.6174519 -6e-7,8.035443 z"
         style="fill:#000000;fill-opacity:1;fill-rule:evenodd;stroke:#000000;stroke-width:0.625;stroke-linejoin:round;stroke-opacity:1"
         id="path2068-5-5-4" />
    </marker>
    <marker
       style="overflow:visible"
       id="Arrow2Mend-97-1-8-8-3"
       refX="0"
       refY="0"
       orient="auto"
       inkscape:stockid="Arrow2Mend"
       inkscape:isstock="true">
      <path
         transform="scale(-0.6)"
         d="M 8.7185878,4.0337352 -2.2072895,0.01601326 8.7185884,-4.0017078 c -1.7454984,2.3720609 -1.7354408,5.6174519 -6e-7,8.035443 z"
         style="fill:#000000;fill-opacity:1;fill-rule:evenodd;stroke:#000000;stroke-width:0.625;stroke-linejoin:round;stroke-opacity:1"
         id="path2068-4-7-5-1-7" />
    </marker>
    <marker
       style="overflow:visible"
       id="Arrow2Mend-1-2-9-0-7"
       refX="0"
       refY="0"
       orient="auto"
       inkscape:stockid="Arrow2Mend"
       inkscape:isstock="true">
      <path
         transform="scale(-0.6)"
         d="M 8.7185878,4.0337352 -2.2072895,0.01601326 8.7185884,-4.0017078 c -1.7454984,2.3720609 -1.7354408,5.6174519 -6e-7,8.035443 z"
         style="fill:#000000;fill-opacity:1;fill-rule:evenodd;stroke:#000000;stroke-width:0.625;stroke-linejoin:round;stroke-opacity:1"
         id="path2068-5-7-6-6-1" />
    </marker>
    <marker
       style="overflow:visible"
       id="Arrow2Mend-1-2-9-0-7-0"
       refX="0"
       refY="0"
       orient="auto"
       inkscape:stockid="Arrow2Mend"
       inkscape:isstock="true">
      <path
         transform="scale(-0.6)"
         d="M 8.7185878,4.0337352 -2.2072895,0.01601326 8.7185884,-4.0017078 c -1.7454984,2.3720609 -1.7354408,5.6174519 -6e-7,8.035443 z"
         style="fill:#000000;fill-opacity:1;fill-rule:evenodd;stroke:#000000;stroke-width:0.625;stroke-linejoin:round;stroke-opacity:1"
         id="path2068-5-7-6-6-1-2" />
    </marker>
  </defs>
  <sodipodi:namedview
     id="base"
     pagecolor="#ffffff"
     bordercolor="#666666"
     borderopacity="1.0"
     inkscape:pageopacity="0.0"
     inkscape:pageshadow="2"
     inkscape:zoom="1.4"
     inkscape:cx="441.90695"
     inkscape:cy="348.93207"
     inkscape:document-units="mm"
     inkscape:current-layer="layer1"
     inkscape:document-rotation="0"
     showgrid="false"
     fit-margin-top="0"
     fit-margin-left="0"
     fit-margin-right="0"
     fit-margin-bottom="0"
     inkscape:window-width="476"
     inkscape:window-height="1761"
     inkscape:window-x="2400"
     inkscape:window-y="37"
     inkscape:window-maximized="1" />
  <metadata
     id="metadata76389">
    <rdf:RDF>
      <cc:Work
         rdf:about="">
        <dc:format>image/svg+xml</dc:format>
        <dc:type
           rdf:resource="http://purl.org/dc/dcmitype/StillImage" />
        <dc:title></dc:title>
      </cc:Work>
    </rdf:RDF>
  </metadata>
  <g
     inkscape:label="Ebene 1"
     inkscape:groupmode="layer"
     id="layer1"
     transform="translate(44.36521,217.07068)">
    <g
       id="g1683-3-2-3-2-9"
       transform="translate(-41.730699,-231.49175)">
      <rect
         style="fill:#0078b8;fill-opacity:1;stroke:none;stroke-width:0.0952482"
         id="rect1513-6-9-9-7-0"
         width="40.162216"
         height="8.194047"
         x="8.1104488"
         y="14.435032" />
      <rect
         style="fill:#99c9e2;fill-opacity:1;stroke:none;stroke-width:0.073802"
         id="rect1513-3-0-3-7-4-1"
         width="24.049788"
         height="8.2153902"
         x="48.272667"
         y="14.42436" />
      <rect
         style="fill:#3293c6;fill-opacity:1;stroke:none;stroke-width:0.0672169"
         id="rect1513-3-6-62-1-2-2-3"
         width="19.933516"
         height="8.2219753"
         x="72.325745"
         y="14.421068" />
    </g>
    <path
       id="rect1513-3-6-6-7-1-4-71-6-0"
       style="fill:#78b800;fill-opacity:1;stroke:none;stroke-width:0.0355478"
       d="m 67.592751,-187.69928 h 22.15869 v 8.24906 h -22.15869 z"
       sodipodi:nodetypes="ccccc" />
    <g
       id="g3161-3-0-6"
       transform="translate(-10.55931,-297.86554)">
      <path
         id="rect1513-9-0-0-6-3-3-8-3"
         style="fill:#999999;fill-opacity:1;stroke:none;stroke-width:0.0458443"
         d="m 80.121485,111.73589 h 18.21985 v 5.10982 h -18.21985 z"
         sodipodi:nodetypes="ccccc" />
      <text
         xml:space="preserve"
         style="font-size:3.0799px;line-height:1.25;font-family:'Roboto Slab';-inkscape-font-specification:'Roboto Slab';letter-spacing:0px;fill:#ffffff;stroke-width:0.164994"
         x="84.371941"
         y="115.46381"
         id="text1557-70-2-3-5-0-3-92-6"><tspan
           sodipodi:role="line"
           x="84.371941"
           y="115.46381"
           style="font-size:3.0799px;fill:#ffffff;stroke-width:0.164994"
           id="tspan1607-9-3-6-6-7-8-2-1">manifest</tspan></text>
      <rect
         style="fill:#ff00ff;fill-opacity:1;stroke:none;stroke-width:0.0127291"
         id="rect1513-3-6-6-2-8-0-7-4-8-5-3-0"
         width="1.7372613"
         height="3.3832879"
         x="80.821358"
         y="112.5921" />
      <rect
         style="fill:#ad8600;fill-opacity:1;stroke:none;stroke-width:0.0127291"
         id="rect1513-3-6-6-2-8-0-7-4-8-5-3-0-6"
         width="1.7372613"
         height="3.3832879"
         x="82.558617"
         y="112.5921" />
    </g>
    <rect
       style="fill:#f8c000;fill-opacity:1;stroke:none;stroke-width:0.0621339"
       id="rect1513-3-6-6-2-8-0-2-1-18-5"
       width="16.976837"
       height="8.249054"
       x="50.615932"
       y="-187.69928" />
    <g
       id="g1683-3-2-3-2-1-7"
       transform="translate(-41.643329,-202.12035)">
      <rect
         style="fill:#800080;fill-opacity:1;stroke:none;stroke-width:0.0952482"
         id="rect1513-6-9-9-7-6-4"
         width="40.162216"
         height="8.194047"
         x="8.1104488"
         y="14.435032" />
      <rect
         style="fill:#800080;fill-opacity:1;stroke:none;stroke-width:0.073802"
         id="rect1513-3-0-3-7-4-9-2"
         width="24.049788"
         height="8.2153902"
         x="48.272667"
         y="14.42436" />
      <rect
         style="fill:#800080;fill-opacity:1;stroke:none;stroke-width:0.0672169"
         id="rect1513-3-6-62-1-2-2-8-0"
         width="19.933516"
         height="8.2219753"
         x="72.325745"
         y="14.421068" />
    </g>
    <text
       xml:space="preserve"
       style="font-size:4.93889px;line-height:1.25;font-family:'Roboto Slab';-inkscape-font-specification:'Roboto Slab';letter-spacing:0px;stroke-width:0.264583"
       x="11.262098"
       y="-196.99878"
       id="text33212-0"><tspan
         sodipodi:role="line"
         id="tspan33210-3"
         x="11.262098"
         y="-196.99878"
         style="font-size:4.93889px;stroke-width:0.264583">encrypt</tspan></text>
    <rect
       style="fill:#ff00ff;fill-opacity:1;stroke:none;stroke-width:0.0380619"
       id="rect1513-3-6-6-2-8-0-7-5-8-3"
       width="6.3705926"
       height="8.249054"
       x="-43.224857"
       y="-201.72821" />
    <text
       xml:space="preserve"
       style="font-size:5.29167px;line-height:1.25;font-family:'Roboto Slab';-inkscape-font-specification:'Roboto Slab';letter-spacing:0px;stroke-width:0.264583"
       x="-44.530575"
       y="-188.08641"
       id="text33284-9"><tspan
         sodipodi:role="line"
         id="tspan33282-0"
         x="-44.530575"
         y="-188.08641"
         style="font-size:5.29167px;stroke-width:0.264583">key</tspan></text>
    <g
       aria-label="{"
       id="text1669-5-0-0-4"
       style="font-size:6.35px;line-height:1.25;font-family:'Roboto Slab';-inkscape-font-specification:'Roboto Slab';letter-spacing:0px;stroke-width:0.264583"
       transform="rotate(-90,-98.506081,-30.734829)">
      <path
         d="m 49.05406,118.2239 c -0.403077,-0.11369 -0.690398,-0.29456 -0.861963,-0.54261 -0.169499,-0.24804 -0.254248,-0.54777 -0.254248,-0.89917 V 76.988167 c 0,-0.231511 -0.05271,-0.411345 -0.15813,-0.539502 -0.10542,-0.130225 -0.267684,-0.195337 -0.486792,-0.195337 v -0.455786 c 0.219108,0 0.381372,-0.06305 0.486792,-0.189136 0.10542,-0.128157 0.15813,-0.309025 0.15813,-0.542602 V 35.26875 c 0,-0.353467 0.08475,-0.65319 0.254248,-0.89917 0.171565,-0.248047 0.458886,-0.428915 0.861963,-0.542603 l 0.124023,0.362769 c -0.227376,0.07235 -0.38964,0.202572 -0.486792,0.390674 -0.09509,0.186035 -0.142627,0.415478 -0.142627,0.68833 v 39.797054 c 0,0.217041 -0.04341,0.408243 -0.130224,0.573608 -0.08682,0.165365 -0.218075,0.294556 -0.393775,0.387573 0.1757,0.09509 0.306958,0.226343 0.393775,0.393775 0.08682,0.165365 0.130224,0.3545 0.130224,0.567407 v 39.793953 c 0,0.27286 0.04754,0.50126 0.142627,0.68523 0.09715,0.18604 0.259416,0.31626 0.486792,0.39068 z"
         style="stroke-width:0.264583"
         id="path1671-9-6-6-3"
         sodipodi:nodetypes="ccssccccssccccsssccssccc" />
    </g>
    <text
       xml:space="preserve"
       style="font-size:4.23333px;line-height:1.25;font-family:'Roboto Slab';-inkscape-font-specification:'Roboto Slab';letter-spacing:0px;stroke-width:0.264583"
       x="27.685497"
       y="-169.04205"
       id="text2599-9-4"><tspan
         sodipodi:role="line"
         id="tspan2597-90-2"
         x="27.685497"
         y="-169.04205"
         style="font-size:4.23333px;stroke-width:0.264583">verity</tspan></text>
    <path
       style="fill:none;stroke:#000000;stroke-width:0.265;stroke-linecap:butt;stroke-linejoin:miter;stroke-miterlimit:4;stroke-dasharray:0.265, 0.53;stroke-dashoffset:0;stroke-opacity:1;marker-end:url(#Arrow2Mend-1-8-6)"
       d="m 8.4309006,-173.90779 v 6.75024 H 59.138551 v -10.64374"
       id="path2039-5-8-4"
       sodipodi:nodetypes="cccc" />
    <path
       style="fill:none;stroke:#000000;stroke-width:0.265;stroke-linecap:butt;stroke-linejoin:miter;stroke-miterlimit:4;stroke-dasharray:none;stroke-opacity:1;marker-end:url(#Arrow2Mend-97-1-8-8-3)"
       d="m -40.261839,-185.96276 v 25.70248 l 111.367489,-4.2e-4 v -21.77221"
       id="path2039-9-0-2-6-3"
       sodipodi:nodetypes="cccc" />
    <path
       style="fill:none;stroke:#000000;stroke-width:0.265;stroke-linecap:butt;stroke-linejoin:miter;stroke-miterlimit:4;stroke-dasharray:none;stroke-opacity:1;marker-end:url(#Arrow2Mend-1-2-9-0-7)"
       d="m 7.9442406,-206.37613 v 13.53114"
       id="path2039-5-0-0-8-9"
       sodipodi:nodetypes="cc" />
    <text
       xml:space="preserve"
       style="font-size:4.23333px;line-height:1.25;font-family:'Roboto Slab';-inkscape-font-specification:'Roboto Slab';letter-spacing:0px;stroke-width:0.264583"
       x="72.747002"
       y="-174.28314"
       id="text2599-9-4-3"><tspan
         sodipodi:role="line"
         id="tspan2597-90-2-9"
         x="72.747002"
         y="-174.28314"
         style="font-size:4.23333px;stroke-width:0.264583">signed</tspan></text>
    <path
       id="rect1513-3-6-6-7-1-4-71-6-0-7"
       style="fill:#78b800;fill-opacity:1;stroke:none;stroke-width:0.0355478"
       d="m 67.592729,-121.24185 h 22.158686 v 8.24906 H 67.592729 Z"
       sodipodi:nodetypes="ccccc" />
    <g
       id="g3161-3-0-6-5"
       transform="translate(-10.559331,-231.40811)">
      <path
         id="rect1513-9-0-0-6-3-3-8-3-7"
         style="fill:#999999;fill-opacity:1;stroke:none;stroke-width:0.0458443"
         d="m 80.121485,111.73589 h 18.21985 v 5.10982 h -18.21985 z"
         sodipodi:nodetypes="ccccc" />
      <text
         xml:space="preserve"
         style="font-size:3.0799px;line-height:1.25;font-family:'Roboto Slab';-inkscape-font-specification:'Roboto Slab';letter-spacing:0px;fill:#ffffff;stroke-width:0.164994"
         x="84.371941"
         y="115.46381"
         id="text1557-70-2-3-5-0-3-92-6-5"><tspan
           sodipodi:role="line"
           x="84.371941"
           y="115.46381"
           style="font-size:3.0799px;fill:#ffffff;stroke-width:0.164994"
           id="tspan1607-9-3-6-6-7-8-2-1-2">manifest</tspan></text>
      <rect
         style="fill:#ff00ff;fill-opacity:1;stroke:none;stroke-width:0.0127291"
         id="rect1513-3-6-6-2-8-0-7-4-8-5-3-0-2"
         width="1.7372613"
         height="3.3832879"
         x="80.821358"
         y="112.5921" />
      <rect
         style="fill:#ad8600;fill-opacity:1;stroke:none;stroke-width:0.0127291"
         id="rect1513-3-6-6-2-8-0-7-4-8-5-3-0-6-8"
         width="1.7372613"
         height="3.3832879"
         x="82.558617"
         y="112.5921" />
    </g>
    <rect
       style="fill:#f8c000;fill-opacity:1;stroke:none;stroke-width:0.0621339"
       id="rect1513-3-6-6-2-8-0-2-1-18-5-6"
       width="16.976837"
       height="8.249054"
       x="50.615913"
       y="-121.24199" />
    <g
       id="g1683-3-2-3-2-1-7-6"
       transform="translate(-41.643348,-135.66292)">
      <rect
         style="fill:#800080;fill-opacity:1;stroke:none;stroke-width:0.0952482"
         id="rect1513-6-9-9-7-6-4-0"
         width="40.162216"
         height="8.194047"
         x="8.1104488"
         y="14.435032" />
      <rect
         style="fill:#800080;fill-opacity:1;stroke:none;stroke-width:0.073802"
         id="rect1513-3-0-3-7-4-9-2-0"
         width="24.049788"
         height="8.2153902"
         x="48.272667"
         y="14.42436" />
      <rect
         style="fill:#800080;fill-opacity:1;stroke:none;stroke-width:0.0672169"
         id="rect1513-3-6-62-1-2-2-8-0-9"
         width="19.933516"
         height="8.2219753"
         x="72.325745"
         y="14.421068" />
    </g>
    <text
       xml:space="preserve"
       style="font-size:4.93889px;line-height:1.25;font-family:'Roboto Slab';-inkscape-font-specification:'Roboto Slab';letter-spacing:0px;stroke-width:0.264583"
       x="10.706984"
       y="-102.03634"
       id="text75481"><tspan
         sodipodi:role="line"
         id="tspan75479"
         x="10.706984"
         y="-102.03634"
         style="font-size:4.93889px;stroke-width:0.264583">fixed</tspan></text>
    <path
       id="rect1513-3-6-6-7-1-4-71-6-0-7-0"
       style="fill:#800033;fill-opacity:1;stroke:none;stroke-width:0.0355478"
       d="m 68.382741,-95.071233 h 22.158694 v 8.249057 H 68.382741 Z"
       sodipodi:nodetypes="ccccc" />
    <path
       d="m 86.794425,-103.41262 c 1.17241,0 2.12287,-0.95047 2.12287,-2.12288 0,-1.1724 -0.95046,-2.12287 -2.12287,-2.12287 -1.17241,0 -2.12288,0.95047 -2.12288,2.12287 0,0.22556 0.035,0.44388 0.10011,0.64772 l -1.94556,1.94557 c -0.0543,0.0543 -0.0844,0.12785 -0.0844,0.20505 v 0.96494 c 0,0.16042 0.129059,0.28949 0.289489,0.28949 h 0.96493 c 0.16042,0 0.28948,-0.12907 0.28948,-0.28949 v -0.48247 h 0.48248 c 0.16042,0 0.28949,-0.12906 0.28949,-0.28948 v -0.48247 h 0.48247 c 0.0772,0 0.15077,-0.0302 0.20504,-0.0844 l 0.40166,-0.40166 c 0.20384,0.0651 0.42216,0.10011 0.64772,0.10011 z m 0.48248,-2.12288 c -0.26658,0 -0.48248,-0.2159 -0.48248,-0.48247 0,-0.26656 0.2159,-0.48247 0.48248,-0.48247 0.26656,0 0.48246,0.21591 0.48246,0.48247 0,0.26657 -0.2159,0.48247 -0.48246,0.48247 z"
       id="path6908-9-3-0-3"
       style="fill:#4d4d4d;stroke-width:0.0120618" />
    <path
       d="m 90.679295,-103.41262 c 1.17241,0 2.122873,-0.95047 2.122873,-2.12288 0,-1.1724 -0.950463,-2.12287 -2.122873,-2.12287 -1.17241,0 -2.12288,0.95047 -2.12288,2.12287 0,0.22556 0.035,0.44388 0.10011,0.64772 l -1.94556,1.94557 c -0.0543,0.0543 -0.0844,0.12785 -0.0844,0.20505 v 0.96494 c 0,0.16042 0.12906,0.28949 0.28949,0.28949 h 0.96493 c 0.16042,0 0.28948,-0.12907 0.28948,-0.28949 v -0.48247 h 0.48248 c 0.16042,0 0.28949,-0.12906 0.28949,-0.28948 v -0.48247 h 0.48247 c 0.0772,0 0.15077,-0.0302 0.20504,-0.0844 l 0.40166,-0.40166 c 0.20384,0.0651 0.42216,0.10011 0.64772,0.10011 z m 0.48248,-2.12288 c -0.26658,0 -0.48248,-0.2159 -0.48248,-0.48247 0,-0.26656 0.2159,-0.48247 0.48248,-0.48247 0.26656,0 0.48246,0.21591 0.48246,0.48247 0,0.26657 -0.2159,0.48247 -0.48246,0.48247 z"
       id="path6908-9-3-0-3-9"
       style="fill:#333333;stroke-width:0.0120618" />
    <path
       d="m 94.652558,-103.41262 c 1.17241,0 2.12287,-0.95047 2.12287,-2.12288 0,-1.1724 -0.95046,-2.12287 -2.12287,-2.12287 -1.17241,0 -2.122883,0.95047 -2.122883,2.12287 0,0.22556 0.035,0.44388 0.10011,0.64772 l -1.94556,1.94557 c -0.0543,0.0543 -0.0844,0.12785 -0.0844,0.20505 v 0.96494 c 0,0.16042 0.12906,0.28949 0.28949,0.28949 h 0.96493 c 0.16042,0 0.28948,-0.12907 0.28948,-0.28949 v -0.48247 h 0.48248 c 0.160423,0 0.289493,-0.12906 0.289493,-0.28948 v -0.48247 h 0.48247 c 0.0772,0 0.15077,-0.0302 0.20504,-0.0844 l 0.40166,-0.40166 c 0.20384,0.0651 0.42216,0.10011 0.64772,0.10011 z m 0.48248,-2.12288 c -0.26658,0 -0.48248,-0.2159 -0.48248,-0.48247 0,-0.26656 0.2159,-0.48247 0.48248,-0.48247 0.26656,0 0.48246,0.21591 0.48246,0.48247 0,0.26657 -0.2159,0.48247 -0.48246,0.48247 z"
       id="path6908-9-3-0-3-6"
       style="fill:#1a1a1a;stroke-width:0.0120618" />
    <path
       d="m 98.345478,-103.41262 c 1.17241,0 2.122872,-0.95047 2.122872,-2.12288 0,-1.1724 -0.950462,-2.12287 -2.122872,-2.12287 -1.17241,0 -2.12288,0.95047 -2.12288,2.12287 0,0.22556 0.035,0.44388 0.10011,0.64772 l -1.94556,1.94557 c -0.0543,0.0543 -0.0844,0.12785 -0.0844,0.20505 v 0.96494 c 0,0.16042 0.12906,0.28949 0.28949,0.28949 h 0.96493 c 0.16042,0 0.28948,-0.12907 0.28948,-0.28949 v -0.48247 h 0.48248 c 0.16042,0 0.28949,-0.12906 0.28949,-0.28948 v -0.48247 h 0.48247 c 0.0772,0 0.15077,-0.0302 0.20504,-0.0844 l 0.40166,-0.40166 c 0.20384,0.0651 0.42216,0.10011 0.64772,0.10011 z m 0.48248,-2.12288 c -0.26658,0 -0.48248,-0.2159 -0.48248,-0.48247 0,-0.26656 0.2159,-0.48247 0.48248,-0.48247 0.26656,0 0.48246,0.21591 0.48246,0.48247 0,0.26657 -0.2159,0.48247 -0.48246,0.48247 z"
       id="path6908-9-3-0-3-5"
       style="stroke-width:0.0120618" />
    <rect
       style="fill:#f8c000;fill-opacity:1;stroke:none;stroke-width:0.0621339"
       id="rect1513-3-6-6-2-8-0-2-1-18-5-6-7"
       width="16.976837"
       height="8.249054"
       x="51.405907"
       y="-95.07132" />
    <g
       id="g1683-3-2-3-2-1-7-6-4"
       transform="translate(-40.853358,-109.49228)">
      <rect
         style="fill:#800080;fill-opacity:1;stroke:none;stroke-width:0.0952482"
         id="rect1513-6-9-9-7-6-4-0-3"
         width="40.162216"
         height="8.194047"
         x="8.1104488"
         y="14.435032" />
      <rect
         style="fill:#800080;fill-opacity:1;stroke:none;stroke-width:0.073802"
         id="rect1513-3-0-3-7-4-9-2-0-9"
         width="24.049788"
         height="8.2153902"
         x="48.272667"
         y="14.42436" />
      <rect
         style="fill:#800080;fill-opacity:1;stroke:none;stroke-width:0.0672169"
         id="rect1513-3-6-62-1-2-2-8-0-9-4"
         width="19.933516"
         height="8.2219753"
         x="72.325745"
         y="14.421068" />
    </g>
    <path
       d="m 89.548005,-112.46359 c -0.11369,0.40308 -0.29456,0.6904 -0.54261,0.86196 -0.24804,0.1695 -0.54777,0.25425 -0.89917,0.25425 h -8.573118 c -0.231511,0 -0.411345,0.0527 -0.539502,0.15813 -0.130225,0.10542 -0.195337,0.26769 -0.195337,0.48679 h -0.455786 c 0,-0.2191 -0.06305,-0.38137 -0.189136,-0.48679 -0.128157,-0.10542 -0.309025,-0.15813 -0.542602,-0.15813 h -8.57622 c -0.353467,0 -0.65319,-0.0847 -0.89917,-0.25425 -0.248047,-0.17156 -0.428915,-0.45888 -0.542603,-0.86196 l 0.362769,-0.12402 c 0.07235,0.22737 0.202572,0.38964 0.390674,0.48679 0.186035,0.0951 0.415478,0.14263 0.68833,0.14263 h 8.57622 c 0.217041,0 0.408243,0.0434 0.573608,0.13022 0.165365,0.0868 0.294556,0.21807 0.387573,0.39377 0.09509,-0.1757 0.226343,-0.30695 0.393775,-0.39377 0.165365,-0.0868 0.3545,-0.13022 0.567407,-0.13022 h 8.573118 c 0.27286,0 0.50126,-0.0475 0.68523,-0.14263 0.18604,-0.0972 0.31626,-0.25942 0.39068,-0.48679 z"
       style="font-size:6.35px;line-height:1.25;font-family:'Roboto Slab';-inkscape-font-specification:'Roboto Slab';letter-spacing:0px;stroke-width:0.264583"
       id="path1671-9-6-6-6"
       sodipodi:nodetypes="ccssccccssccccsssccssccc" />
    <path
       style="fill:none;stroke:#000000;stroke-width:0.265;stroke-linecap:butt;stroke-linejoin:miter;stroke-miterlimit:4;stroke-dasharray:none;stroke-opacity:1;marker-end:url(#Arrow2Mend-1-2-9-0-7-0)"
       d="m 78.586778,-110.07285 v 13.531137"
       id="path2039-5-0-0-8-9-2"
       sodipodi:nodetypes="cc" />
    <path
       id="rect1513-3-6-6-7-1-4-71-6-0-7-0-4"
       style="fill:#800033;fill-opacity:1;stroke:none;stroke-width:0.017774"
       d="m 68.382744,-95.071233 h 5.53975 v 8.249057 h -5.53975 z"
       sodipodi:nodetypes="ccccc" />
    <path
       id="rect1513-3-6-6-7-1-4-71-6-0-7-0-4-3"
       style="fill:#800033;fill-opacity:1;stroke:none;stroke-width:0.017774"
       d="m 73.922494,-95.071233 h 5.53975 v 8.249057 h -5.53975 z"
       sodipodi:nodetypes="ccccc" />
    <path
       id="rect1513-3-6-6-7-1-4-71-6-0-7-0-4-1"
       style="fill:#800033;fill-opacity:1;stroke:none;stroke-width:0.017774"
       d="m 79.462244,-95.071233 h 5.539751 v 8.249057 h -5.539751 z"
       sodipodi:nodetypes="ccccc" />
    <g
       id="g76225"
       transform="matrix(0.70474203,0,0,0.70474203,10.667486,-495.97195)">
      <path
         d="m 92.806119,575.87212 c 1.17241,0 2.12287,-0.95047 2.12287,-2.12288 0,-1.1724 -0.95046,-2.12287 -2.12287,-2.12287 -1.17241,0 -2.12288,0.95047 -2.12288,2.12287 0,0.22556 0.035,0.44388 0.10011,0.64772 l -1.94556,1.94557 c -0.0543,0.0543 -0.0844,0.12785 -0.0844,0.20505 v 0.96494 c 0,0.16042 0.12906,0.28949 0.28949,0.28949 h 0.96493 c 0.16042,0 0.28948,-0.12907 0.28948,-0.28949 v -0.48247 h 0.48248 c 0.16042,0 0.28949,-0.12906 0.28949,-0.28948 v -0.48247 h 0.48247 c 0.0772,0 0.15077,-0.0302 0.20504,-0.0844 l 0.40166,-0.40166 c 0.20384,0.0651 0.42216,0.10011 0.64772,0.10011 z m 0.48248,-2.12288 c -0.26658,0 -0.48248,-0.2159 -0.48248,-0.48247 0,-0.26656 0.2159,-0.48247 0.48248,-0.48247 0.26656,0 0.48246,0.21591 0.48246,0.48247 0,0.26657 -0.2159,0.48247 -0.48246,0.48247 z"
         id="path6908-9-3-0-3-90"
         style="fill:#ffffff;stroke-width:0.0120618" />
      <path
         d="m 96.690989,575.87212 c 1.17241,0 2.12287,-0.95047 2.12287,-2.12288 0,-1.1724 -0.95046,-2.12287 -2.12287,-2.12287 -1.17241,0 -2.12288,0.95047 -2.12288,2.12287 0,0.22556 0.035,0.44388 0.10011,0.64772 l -1.94556,1.94557 c -0.0543,0.0543 -0.0844,0.12785 -0.0844,0.20505 v 0.96494 c 0,0.16042 0.12906,0.28949 0.28949,0.28949 h 0.96493 c 0.16042,0 0.28948,-0.12907 0.28948,-0.28949 v -0.48247 h 0.48248 c 0.16042,0 0.28949,-0.12906 0.28949,-0.28948 v -0.48247 h 0.48247 c 0.0772,0 0.15077,-0.0302 0.20504,-0.0844 l 0.40166,-0.40166 c 0.20384,0.0651 0.42216,0.10011 0.64772,0.10011 z m 0.48248,-2.12288 c -0.26658,0 -0.48248,-0.2159 -0.48248,-0.48247 0,-0.26656 0.2159,-0.48247 0.48248,-0.48247 0.26656,0 0.48246,0.21591 0.48246,0.48247 0,0.26657 -0.2159,0.48247 -0.48246,0.48247 z"
         id="path6908-9-3-0-3-9-0"
         style="fill:#e6e6e6;stroke-width:0.0120618" />
      <path
         d="m 100.66425,575.87212 c 1.17241,0 2.12287,-0.95047 2.12287,-2.12288 0,-1.1724 -0.95046,-2.12287 -2.12287,-2.12287 -1.172411,0 -2.122881,0.95047 -2.122881,2.12287 0,0.22556 0.035,0.44388 0.10011,0.64772 l -1.94556,1.94557 c -0.0543,0.0543 -0.0844,0.12785 -0.0844,0.20505 v 0.96494 c 0,0.16042 0.12906,0.28949 0.28949,0.28949 h 0.96493 c 0.16042,0 0.28948,-0.12907 0.28948,-0.28949 v -0.48247 h 0.48248 c 0.16042,0 0.28949,-0.12906 0.28949,-0.28948 v -0.48247 h 0.48247 c 0.0772,0 0.15077,-0.0302 0.20504,-0.0844 l 0.401661,-0.40166 c 0.20384,0.0651 0.42216,0.10011 0.64772,0.10011 z m 0.48248,-2.12288 c -0.26658,0 -0.48248,-0.2159 -0.48248,-0.48247 0,-0.26656 0.2159,-0.48247 0.48248,-0.48247 0.26656,0 0.48246,0.21591 0.48246,0.48247 0,0.26657 -0.2159,0.48247 -0.48246,0.48247 z"
         id="path6908-9-3-0-3-6-0"
         style="fill:#cccccc;stroke-width:0.0120618" />
      <path
         d="m 104.35717,575.87212 c 1.17241,0 2.12287,-0.95047 2.12287,-2.12288 0,-1.1724 -0.95046,-2.12287 -2.12287,-2.12287 -1.17241,0 -2.12288,0.95047 -2.12288,2.12287 0,0.22556 0.035,0.44388 0.10011,0.64772 l -1.94556,1.94557 c -0.0543,0.0543 -0.0844,0.12785 -0.0844,0.20505 v 0.96494 c 0,0.16042 0.12906,0.28949 0.28949,0.28949 h 0.96493 c 0.16042,0 0.28948,-0.12907 0.28948,-0.28949 v -0.48247 h 0.48248 c 0.16042,0 0.28949,-0.12906 0.28949,-0.28948 v -0.48247 h 0.48247 c 0.0772,0 0.15077,-0.0302 0.20504,-0.0844 l 0.40166,-0.40166 c 0.20384,0.0651 0.42216,0.10011 0.64772,0.10011 z m 0.48248,-2.12288 c -0.26658,0 -0.48248,-0.2159 -0.48248,-0.48247 0,-0.26656 0.2159,-0.48247 0.48248,-0.48247 0.26656,0 0.48246,0.21591 0.48246,0.48247 0,0.26657 -0.2159,0.48247 -0.48246,0.48247 z"
         id="path6908-9-3-0-3-5-2"
         style="fill:#b3b3b3;stroke-width:0.0120618" />
    </g>
    <g
       aria-label="{"
       id="text1669-5-0-0-4-5"
       style="font-size:6.35px;line-height:1.25;font-family:'Roboto Slab';-inkscape-font-specification:'Roboto Slab';letter-spacing:0px;stroke-width:0.264583"
       transform="rotate(-90,-65.405295,1.9545779)">
      <path
         d="m 49.05406,135.15723 c -0.403077,-0.11369 -0.690398,-0.29456 -0.861963,-0.54261 -0.169499,-0.24804 -0.254248,-0.54777 -0.254248,-0.89917 V 85.454834 c 0,-0.231511 -0.05271,-0.411345 -0.15813,-0.539502 -0.10542,-0.130225 -0.267684,-0.195337 -0.486792,-0.195337 v -0.455786 c 0.219108,0 0.381372,-0.06305 0.486792,-0.189136 0.10542,-0.128157 0.15813,-0.309025 0.15813,-0.542602 V 35.26875 c 0,-0.353467 0.08475,-0.65319 0.254248,-0.89917 0.171565,-0.248047 0.458886,-0.428915 0.861963,-0.542603 l 0.124023,0.362769 c -0.227376,0.07235 -0.38964,0.202572 -0.486792,0.390674 -0.09509,0.186035 -0.142627,0.415478 -0.142627,0.68833 v 48.263721 c 0,0.217041 -0.04341,0.408243 -0.130224,0.573608 -0.08682,0.165365 -0.218075,0.294556 -0.393775,0.387573 0.1757,0.09509 0.306958,0.226343 0.393775,0.393775 0.08682,0.165365 0.130224,0.3545 0.130224,0.567407 v 48.260616 c 0,0.27286 0.04754,0.50126 0.142627,0.68523 0.09715,0.18604 0.259416,0.31626 0.486792,0.39068 z"
         style="stroke-width:0.264583"
         id="path1671-9-6-6-3-7"
         sodipodi:nodetypes="ccssccccssccccsssccssccc" />
    </g>
    <path
       style="fill:none;stroke:#000000;stroke-width:0.264583px;stroke-linecap:butt;stroke-linejoin:miter;stroke-opacity:1"
       d="M -33.649029,-197.93736 H 7.7651917"
       id="path50406"
       sodipodi:nodetypes="cc" />
  </g>
</svg>
